<?xml version="1.0" encoding="utf-8"?>
<!-- Generator: Adobe Illustrator 27.5.0, SVG Export Plug-In . SVG Version: 6.00 Build 0)  -->
<svg version="1.1" xmlns="http://www.w3.org/2000/svg" xmlns:xlink="http://www.w3.org/1999/xlink" x="0px" y="0px"
	 viewBox="0 0 500 500" style="enable-background:new 0 0 500 500;" xml:space="preserve">
<g id="BACKGROUND">
	<rect x="0.904" y="-0.497" style="fill:#F7F7F0;" width="500" height="500"/>
</g>
<g id="OBJECTS">
	<g>
		<path style="fill:#E5E5D6;" d="M435.49,468.096c0.133-6.619-91.375-13.825-204.39-16.096
			c-113.014-2.271-204.738,1.253-204.872,7.872c-0.105,5.244,59.816,10.904,140.914,14.16l141.661,8.635l64.818-7.118
			C411.923,474.134,435.421,471.519,435.49,468.096z"/>
		<g>
			<polygon style="fill:#00C9BA;" points="393.859,181.632 393.859,128.383 407.351,128.383 407.351,103.398 313.908,53.429 
				313.908,29.943 246.397,29.943 178.885,29.943 178.885,53.429 85.442,103.398 85.442,128.383 98.934,128.383 98.934,181.632 
				98.934,310.762 98.934,364.011 85.442,364.011 85.442,388.996 178.885,438.966 178.885,462.451 246.397,462.451 313.908,462.451 
				313.908,438.966 407.351,388.996 407.351,364.011 393.859,364.011 393.859,310.762 			"/>
			<path style="fill:#32EAD8;" d="M98.934,364.011H85.442v24.985l93.443,49.97v23.486h67.511h67.511v-23.486l93.443-49.97v-24.985
				h-13.492v-53.249V195.01c-32.066,0.733-57.839,26.937-57.839,59.179c0,6.158,0.941,12.095,2.686,17.678
				c-14.781,2.948-26.809,13.518-31.817,27.441c-5.558-2.645-11.775-4.129-18.34-4.129c-20.348,0-37.362,14.225-41.67,33.271
				c-3.71-1.177-7.659-1.816-11.758-1.816c-0.832,0-1.655,0.035-2.474,0.087c-0.606-23.073-19.486-41.594-42.706-41.594
				c-8.375,0-16.18,2.418-22.774,6.581c-5.921-9.893-15.73-17.184-27.316-19.778c1.927-5.56,2.988-11.524,2.988-17.74
				c0-26.404-18.9-48.382-43.907-53.174v109.747V364.011z"/>
			<path style="fill:#08AF9F;" d="M85.442,364.011v24.985l93.443,49.97v23.486h67.511h67.511v-23.486l93.443-49.97v-24.985h-13.492
				v-26.187c-78.854-4.922-138.495-73.157-193.487-43.932c-33.847,17.987-74.414,26.306-101.438,30.083v40.036H85.442z"/>
			<linearGradient id="SVGID_1_" gradientUnits="userSpaceOnUse" x1="246.3966" y1="462.4512" x2="246.3966" y2="286.6412">
				<stop  offset="0.3817" style="stop-color:#FFFFFF;stop-opacity:0.7"/>
				<stop  offset="1" style="stop-color:#5083C2;stop-opacity:0"/>
			</linearGradient>
			<path style="fill:url(#SVGID_1_);" d="M85.442,364.011v24.985l93.443,49.97v23.486h67.511h67.511v-23.486l93.443-49.97v-24.985
				h-13.492v-26.187c-78.854-4.922-138.495-73.157-193.487-43.932c-33.847,17.987-74.414,26.306-101.438,30.083v40.036H85.442z"/>
			<path style="fill:#099382;" d="M85.442,364.011v24.985l93.443,49.97v23.486h67.511h67.511v-23.486l93.443-49.97v-24.985h-13.492
				v-53.249v-7.789c-65.301,24.164-124.291,105.583-175.04,62.061c-37.482-32.144-88.243-45.888-119.885-51.614v50.592H85.442z"/>
			
				<linearGradient id="SVGID_00000002344910614679033630000008667426531590544003_" gradientUnits="userSpaceOnUse" x1="246.3966" y1="462.4512" x2="246.3966" y2="302.9725">
				<stop  offset="0" style="stop-color:#642C98"/>
				<stop  offset="0.8118" style="stop-color:#5083C2;stop-opacity:0"/>
			</linearGradient>
			<path style="fill:url(#SVGID_00000002344910614679033630000008667426531590544003_);" d="M85.442,364.011v24.985l93.443,49.97
				v23.486h67.511h67.511v-23.486l93.443-49.97v-24.985h-13.492v-53.249v-7.789c-65.301,24.164-124.291,105.583-175.04,62.061
				c-37.482-32.144-88.243-45.888-119.885-51.614v50.592H85.442z"/>
			
				<linearGradient id="SVGID_00000106141274414933888790000013799999363349235344_" gradientUnits="userSpaceOnUse" x1="246.3966" y1="29.9428" x2="246.3966" y2="462.4512">
				<stop  offset="0" style="stop-color:#094C45;stop-opacity:0.8"/>
				<stop  offset="0.6667" style="stop-color:#5083C2;stop-opacity:0"/>
			</linearGradient>
			<polygon style="fill:url(#SVGID_00000106141274414933888790000013799999363349235344_);" points="393.859,181.632 
				393.859,128.383 407.351,128.383 407.351,103.398 313.908,53.429 313.908,29.943 246.397,29.943 178.885,29.943 178.885,53.429 
				85.442,103.398 85.442,128.383 98.934,128.383 98.934,181.632 98.934,310.762 98.934,364.011 85.442,364.011 85.442,388.996 
				178.885,438.966 178.885,462.451 246.397,462.451 313.908,462.451 313.908,438.966 407.351,388.996 407.351,364.011 
				393.859,364.011 393.859,310.762 			"/>
			<path style="fill:#E8E7CA;" d="M399.856,120.887v-12.998L306.413,57.92V37.438H186.38V57.92l-93.443,49.969v12.998h13.492v250.62
				H92.938v12.997l93.443,49.969v20.483h120.032v-20.483l93.443-49.969v-12.997h-13.492v-250.62H399.856z M396.858,374.505v8.203
				l-93.443,49.97v19.28H189.379v-19.28l-93.443-49.97v-8.203h13.492V117.889H95.936v-8.203l93.443-49.969v-19.28h114.036v19.28
				l93.443,49.969v8.203h-13.492v256.616H396.858z"/>
		</g>
		<g>
			<g>
				<g>
					<path style="fill:#E5A128;" d="M402.443,268.165v-7.742h-5.342c-0.914-14.474-17.12-21.077-17.12-21.077v-4.591h-2.842h-2.032
						h-2.842v4.591c0,0-16.206,6.603-17.12,21.077h-5.342v7.742h5.298v26.163h-5.298v7.742h25.304h2.032h25.304v-7.742h-5.298
						v-26.163H402.443z"/>
					<g>
						<rect x="355.1" y="290.498" style="fill:#BC7B1D;" width="42.045" height="3.83"/>
						<rect x="355.1" y="268.174" style="fill:#BC7B1D;" width="42.045" height="3.83"/>
						<path style="fill:#BC7B1D;" d="M363.683,273.262c-1.853,0-3.355,1.502-3.355,3.355v12.538h6.71v-12.538
							C367.038,274.765,365.536,273.262,363.683,273.262z"/>
						<path style="fill:#BC7B1D;" d="M375.338,273.262c-1.853,0-3.355,1.502-3.355,3.355v12.538h6.71v-12.538
							C378.693,274.765,377.191,273.262,375.338,273.262z"/>
						<path style="fill:#BC7B1D;" d="M388.052,273.262c-1.853,0-3.355,1.502-3.355,3.355v12.538h6.71v-12.538
							C391.407,274.765,389.905,273.262,388.052,273.262z"/>
						<polygon style="fill:#BC7B1D;" points="397.101,259.068 355.319,259.068 355.145,260.422 397.101,260.422 						"/>
					</g>
				</g>
				
					<line style="fill:none;stroke:#E5A128;stroke-width:2;stroke-miterlimit:10;" x1="376.123" y1="234.755" x2="376.123" y2="86.71"/>
			</g>
			<g>
				<g>
					<path style="fill:#E5A128;" d="M143.105,302.268v-7.742h-5.342c-0.914-14.474-17.12-21.077-17.12-21.077v-4.591h-2.842h-2.032
						h-2.842v4.591c0,0-16.206,6.603-17.12,21.077h-5.342v7.742h5.298v26.163h-5.298v7.743h25.304h2.032h25.304v-7.743h-5.298
						v-26.163H143.105z"/>
					<g>
						<rect x="95.762" y="324.601" style="fill:#BC7B1D;" width="42.045" height="3.83"/>
						<rect x="95.762" y="302.278" style="fill:#BC7B1D;" width="42.045" height="3.83"/>
						<path style="fill:#BC7B1D;" d="M104.345,307.366c-1.853,0-3.355,1.502-3.355,3.355v12.538h6.71v-12.538
							C107.7,308.868,106.198,307.366,104.345,307.366z"/>
						<path style="fill:#BC7B1D;" d="M115.999,307.366c-1.853,0-3.355,1.502-3.355,3.355v12.538h6.71v-12.538
							C119.355,308.868,117.852,307.366,115.999,307.366z"/>
						<path style="fill:#BC7B1D;" d="M128.714,307.366c-1.853,0-3.355,1.502-3.355,3.355v12.538h6.711v-12.538
							C132.069,308.868,130.567,307.366,128.714,307.366z"/>
						<polygon style="fill:#BC7B1D;" points="137.763,293.171 95.981,293.171 95.807,294.526 137.763,294.526 						"/>
					</g>
				</g>
				
					<line style="fill:none;stroke:#E5A128;stroke-width:2;stroke-miterlimit:10;" x1="116.785" y1="268.858" x2="116.785" y2="86.774"/>
			</g>
		</g>
		<g>
			<g>
				<path style="fill:#26BC9F;" d="M302.659,453.682c0,0,9.649-26.077,23.31-29.473c13.661-3.397,16.119,6.836,25.273-0.533
					c9.154-7.369,17.777-12.445,27.617-11.129c9.84,1.316,14.789,7.181,28.166,6.844c13.378-0.336,23.913,4.587,25.482,13.572
					c1.569,8.985-12.042,18.048-20.129,14.809c-8.087-3.239-10.757,9.498-24.406,11.618c-13.649,2.12-16.173-6.479-25.867-1.565
					C352.415,462.739,347.038,494.193,302.659,453.682z"/>
				<path style="fill:#FFFFFF;" d="M423.612,442.147c-6.154-7.473-11.969-10.534-15.871-11.786
					c7.218,0.256,13.988,1.268,19.947,3.297c0.2,0.068,0.418-0.039,0.486-0.239c0.068-0.201-0.043-0.419-0.239-0.486
					c-7.11-2.421-15.355-3.415-24.138-3.399c-0.537-0.043-0.863-0.033-0.93-0.03c-0.056,0.003-0.108,0.019-0.155,0.043
					c-6.427,0.071-13.124,0.666-19.865,1.628c2.271-2.046,7.638-7.8,5.01-14.525c-0.076-0.197-0.298-0.293-0.496-0.217
					c-0.197,0.077-0.295,0.299-0.217,0.496c3.06,7.831-5.615,14.366-5.703,14.431c-0.008,0.006-0.012,0.014-0.019,0.021
					c-6.836,1.026-13.696,2.416-20.345,4c-0.158-0.001-0.247,0-0.259,0c-0.109,0.003-0.206,0.053-0.273,0.128
					c-7.982,1.918-15.645,4.109-22.574,6.287c2.399-2.187,7.248-7.313,8.692-14.121c0.043-0.206-0.087-0.409-0.295-0.454
					c-0.207-0.044-0.41,0.089-0.454,0.295c-1.873,8.831-9.691,14.77-9.77,14.828c-0.016,0.012-0.024,0.028-0.037,0.042
					c-6.486,2.075-12.261,4.109-16.976,5.853c-0.093,0-0.176,0.035-0.242,0.09c-7.764,2.878-12.581,4.941-12.774,5.025
					c-0.193,0.084-0.283,0.31-0.199,0.504c0.037,0.086,0.103,0.152,0.182,0.191c0.097,0.048,0.214,0.055,0.322,0.008
					c0.151-0.066,3.142-1.347,8.162-3.283c0.01,0.006,0.015,0.019,0.026,0.025c0.042,0.021,0.087,0.034,0.136,0.038
					c0.219,0.019,21.964,2.067,30.892,15.241c0.117,0.176,0.357,0.22,0.531,0.103c0.175-0.118,0.221-0.357,0.103-0.531
					c-7.897-11.654-25.48-14.782-30.242-15.428c1.008-0.384,2.086-0.789,3.226-1.211c1.653,0.072,19.679,1.193,28.074,15.329
					c0.039,0.066,0.095,0.116,0.16,0.148c0.112,0.055,0.249,0.055,0.365-0.014c0.182-0.108,0.242-0.342,0.134-0.524
					c-7.364-12.402-21.914-15.025-27.02-15.569c10.118-3.696,24.546-8.502,40.159-12.233c2.428,0.029,19.937,0.808,31.194,16.71
					c0.038,0.054,0.087,0.095,0.143,0.122c0.122,0.06,0.272,0.053,0.391-0.031c0.173-0.122,0.214-0.362,0.092-0.534
					c-9.482-13.397-23.317-16.262-29.249-16.87c13.192-3.024,27.09-5.204,39.847-5.251c2.314,0.174,10.603,1.566,19.478,12.342
					c0.035,0.043,0.078,0.076,0.126,0.1c0.131,0.065,0.293,0.052,0.413-0.048C423.723,442.552,423.746,442.311,423.612,442.147z"/>
			</g>
			<g>
				<path style="fill:#32CEB0;" d="M276.911,452.975c0,0-3.789-36.093,10.232-47.968c14.021-11.874,22.815-1.323,29.265-15.239
					c6.45-13.916,13.604-24.843,25.879-28.994c12.275-4.151,21.457-0.15,36.916-8.28c15.459-8.13,30.634-8.462,37.666,1.144
					c7.032,9.606-3.653,28.082-14.989,28.969c-11.336,0.886-7.094,17.334-21.839,27.709c-14.745,10.374-22.672,1.772-31.173,13.127
					C340.368,434.798,352.267,474.712,276.911,452.975z"/>
				<path style="fill:#FFFFFF;" d="M411.77,369.53c-11.523-5.185-20.096-5.405-25.387-4.613c8.594-3.874,17.101-6.605,25.247-7.677
					c0.273-0.036,0.466-0.287,0.43-0.561c-0.036-0.274-0.293-0.466-0.561-0.43c-9.72,1.279-19.942,4.884-30.21,9.981
					c-0.653,0.26-1.029,0.46-1.105,0.502c-0.065,0.036-0.116,0.085-0.157,0.14c-7.479,3.8-14.971,8.369-22.303,13.393
					c1.474-3.708,4.427-13.544-2.537-19.893c-0.203-0.186-0.518-0.171-0.706,0.032c-0.186,0.204-0.172,0.52,0.032,0.706
					c8.109,7.394,1.737,20.057,1.672,20.184c-0.006,0.011-0.005,0.024-0.01,0.035c-7.405,5.154-14.629,10.747-21.493,16.446
					c-0.186,0.09-0.289,0.143-0.303,0.15c-0.126,0.067-0.21,0.181-0.246,0.308c-8.23,6.86-15.93,13.856-22.779,20.412
					c1.542-3.946,4.252-12.749,2.005-21.551c-0.068-0.266-0.339-0.428-0.608-0.36c-0.268,0.068-0.428,0.341-0.36,0.608
					c2.915,11.417-2.798,22.886-2.857,23.001c-0.011,0.023-0.012,0.047-0.019,0.071c-6.39,6.179-11.971,11.898-16.479,16.666
					c-0.108,0.053-0.185,0.142-0.231,0.245c-7.42,7.857-11.864,13.057-12.042,13.267c-0.178,0.211-0.152,0.526,0.059,0.705
					c0.094,0.079,0.209,0.118,0.323,0.118c0.142,0,0.282-0.059,0.382-0.177c0.139-0.164,2.898-3.394,7.652-8.561
					c0.016,0.001,0.029,0.014,0.045,0.014c0.061,0,0.122-0.011,0.182-0.034c0.267-0.104,26.896-10.283,44.961-0.031
					c0.239,0.138,0.545,0.052,0.681-0.187c0.137-0.24,0.053-0.546-0.187-0.681c-15.981-9.07-38.364-2.562-44.309-0.564
					c0.958-1.032,1.985-2.13,3.074-3.283c1.975-0.872,23.717-9.985,41.715,1.702c0.084,0.055,0.179,0.081,0.272,0.081
					c0.163,0,0.323-0.08,0.419-0.227c0.15-0.231,0.085-0.541-0.146-0.691c-15.789-10.254-34.331-4.908-40.62-2.592
					c9.702-10.176,23.805-24.143,39.917-37.538c2.857-1.37,23.795-10.585,46.165,1.512c0.076,0.041,0.157,0.061,0.238,0.061
					c0.178,0,0.349-0.095,0.439-0.262c0.132-0.243,0.041-0.547-0.201-0.677c-18.843-10.193-36.688-5.544-43.98-2.826
					c13.687-11.167,28.688-21.756,43.59-29.189c2.808-1.134,13.313-4.3,29.93,3.177c0.066,0.03,0.136,0.044,0.205,0.044
					c0.19,0,0.373-0.109,0.456-0.295C412.134,369.939,412.022,369.643,411.77,369.53z"/>
			</g>
			<g>
				<path style="fill:#26BC9F;" d="M197.735,459.322c0,0,0.955-26.21-9.738-34.081c-10.694-7.871-16.515,0.169-21.85-9.547
					c-5.336-9.716-11.032-17.242-20.087-19.631c-9.055-2.389-15.478,0.948-27.024-4.152c-11.546-5.101-22.504-4.593-27.101,2.679
					c-4.597,7.272,4.016,20.068,12.233,20.149c8.217,0.081,5.968,12.149,17.11,18.903c11.142,6.754,16.434,0.162,23.122,7.93
					C151.087,449.34,144.473,478.704,197.735,459.322z"/>
				<path style="fill:#FFFFFF;" d="M96.393,405.796c8.053-4.306,14.224-4.886,18.077-4.576c-6.387-2.37-12.655-3.921-18.581-4.292
					c-0.199-0.013-0.351-0.184-0.338-0.383c0.012-0.199,0.188-0.35,0.383-0.338c7.071,0.444,14.619,2.54,22.273,5.71
					c0.484,0.156,0.765,0.281,0.822,0.308c0.048,0.023,0.088,0.055,0.12,0.093c5.58,2.371,11.206,5.297,16.74,8.559
					c-1.245-2.601-3.858-9.547,0.85-14.468c0.137-0.144,0.365-0.149,0.51-0.012c0.145,0.138,0.15,0.367,0.012,0.51
					c-5.483,5.73-0.265,14.547-0.212,14.635c0.005,0.008,0.005,0.017,0.009,0.025c5.593,3.351,11.077,7.029,16.306,10.8
					c0.139,0.056,0.215,0.089,0.226,0.093c0.094,0.042,0.16,0.12,0.192,0.21c6.272,4.541,12.168,9.206,17.428,13.596
					c-1.306-2.769-3.693-8.982-2.506-15.439c0.036-0.195,0.223-0.326,0.421-0.289c0.196,0.036,0.326,0.224,0.29,0.421
					c-1.54,8.375,3.144,16.364,3.192,16.443c0.009,0.016,0.011,0.033,0.017,0.05c4.911,4.14,9.216,7.99,12.702,11.205
					c0.081,0.033,0.141,0.094,0.179,0.165c5.737,5.3,9.197,8.831,9.335,8.973c0.138,0.143,0.136,0.372-0.008,0.511
					c-0.064,0.062-0.145,0.096-0.227,0.101c-0.102,0.007-0.206-0.029-0.284-0.109c-0.108-0.112-2.256-2.304-5.938-5.796
					c-0.011,0.002-0.02,0.011-0.032,0.012c-0.044,0.003-0.089-0.002-0.133-0.016c-0.198-0.062-19.898-6.09-32.419,2.191
					c-0.166,0.111-0.39,0.064-0.5-0.102c-0.11-0.166-0.065-0.391,0.102-0.5c11.076-7.326,27.535-3.736,31.919-2.588
					c-0.741-0.697-1.536-1.438-2.378-2.216c-1.467-0.531-17.592-6.032-29.993,3.281c-0.058,0.044-0.125,0.067-0.192,0.072
					c-0.118,0.008-0.237-0.042-0.313-0.143c-0.12-0.159-0.088-0.386,0.072-0.505c10.879-8.17,24.511-5.228,29.16-3.868
					c-7.496-6.859-18.352-16.236-30.628-25.1c-2.128-0.848-17.678-6.46-33.21,3.363c-0.053,0.033-0.11,0.051-0.169,0.055
					c-0.128,0.009-0.257-0.051-0.329-0.167c-0.107-0.169-0.057-0.392,0.112-0.498c13.084-8.276,26.18-5.803,31.571-4.202
					c-10.418-7.378-21.756-14.274-32.865-18.899c-2.08-0.68-9.81-2.445-21.423,3.764c-0.046,0.025-0.096,0.038-0.146,0.042
					c-0.137,0.009-0.274-0.06-0.343-0.19C96.15,406.109,96.217,405.89,96.393,405.796z"/>
			</g>
			<g>
				<path style="fill:#32CEB0;" d="M220.445,467.957c0,0,16.275-30.117,8.314-45.511c-7.961-15.395-19.422-9.353-20.047-23.807
					c-0.625-14.455-2.937-26.555-12.151-34.587c-9.214-8.031-18.66-7.842-29.221-20.487c-10.561-12.646-23.676-18.388-33.262-12.538
					c-9.585,5.851-6.906,25.805,2.662,30.651c9.568,4.846-0.043,17.667,9.089,32.014c9.132,14.347,19.136,9.693,22.469,22.651
					C171.634,429.3,146.913,459.835,220.445,467.957z"/>
				<path style="fill:#FFFFFF;" d="M132.816,346.719c11.913-0.381,19.469,2.508,23.798,5.099
					c-6.102-6.467-12.541-11.906-19.26-15.768c-0.225-0.13-0.304-0.418-0.174-0.644c0.13-0.226,0.423-0.301,0.644-0.174
					c8.017,4.608,15.637,11.426,22.761,19.562c0.476,0.462,0.732,0.771,0.784,0.835c0.043,0.054,0.07,0.115,0.086,0.179
					c5.158,6.002,10.05,12.679,14.639,19.696c0.047-3.764,1.006-13.403,9.362-16.438c0.244-0.09,0.513,0.037,0.604,0.282
					c0.089,0.245-0.037,0.515-0.282,0.604c-9.73,3.534-8.723,16.868-8.711,17.002c0.001,0.012-0.004,0.022-0.004,0.034
					c4.606,7.156,8.896,14.63,12.835,22.067c0.13,0.145,0.201,0.229,0.21,0.24c0.086,0.104,0.118,0.233,0.104,0.357
					c4.713,8.94,8.914,17.809,12.531,25.988c0.073-3.996,0.873-12.647,5.996-19.515c0.155-0.208,0.449-0.252,0.66-0.096
					c0.209,0.156,0.251,0.451,0.096,0.66c-6.645,8.91-5.784,20.966-5.774,21.086c0.002,0.024-0.007,0.045-0.008,0.068
					c3.353,7.685,6.164,14.679,8.383,20.457c0.075,0.086,0.11,0.191,0.114,0.297c3.648,9.519,5.654,15.651,5.734,15.898
					c0.079,0.248-0.056,0.514-0.304,0.594c-0.11,0.035-0.225,0.028-0.324-0.013c-0.123-0.051-0.225-0.153-0.269-0.291
					c-0.062-0.193-1.308-4.001-3.597-10.216c-0.014-0.004-0.03,0.002-0.044-0.004c-0.053-0.022-0.103-0.053-0.146-0.095
					c-0.196-0.187-19.762-18.633-39.201-16.184c-0.258,0.034-0.494-0.151-0.527-0.408c-0.033-0.258,0.15-0.495,0.408-0.527
					c17.197-2.168,34.379,11.552,38.846,15.431c-0.464-1.244-0.966-2.57-1.502-3.968c-1.409-1.47-17.096-17.231-36.993-13.506
					c-0.093,0.018-0.185,0.007-0.267-0.027c-0.142-0.059-0.253-0.186-0.283-0.349c-0.048-0.256,0.12-0.502,0.376-0.55
					c17.455-3.269,31.705,8.057,36.358,12.337c-4.804-12.361-12.085-29.611-21.323-47.083c-1.999-2.222-16.949-17.782-40.805-15.271
					c-0.081,0.008-0.159-0.004-0.229-0.033c-0.155-0.064-0.271-0.208-0.289-0.386c-0.028-0.259,0.161-0.491,0.419-0.518
					c20.096-2.118,33.989,8.349,39.372,13.34c-7.924-14.658-17.202-29.284-27.527-41.121c-2.041-1.998-10.066-8.534-27.245-7.984
					c-0.069,0.003-0.134-0.01-0.194-0.035c-0.166-0.068-0.286-0.229-0.292-0.421C132.352,346.945,132.556,346.727,132.816,346.719z"
					/>
			</g>
		</g>
		<g>
			<polygon style="fill:#0E756B;" points="333.168,467.003 146.867,456.988 67.47,464.629 48.465,464.459 48.465,466.458 
				308.803,482.667 377.764,469.4 377.764,467.401 			"/>
			<polygon style="fill:#00C9BA;" points="48.465,464.459 308.803,480.668 377.764,467.401 146.867,454.989 			"/>
		</g>
		<g>
			
				<radialGradient id="SVGID_00000052091399665091750570000005548183419182115225_" cx="251.17" cy="126.5921" r="53.8421" gradientUnits="userSpaceOnUse">
				<stop  offset="0.5744" style="stop-color:#00C9BA;stop-opacity:0"/>
				<stop  offset="0.6156" style="stop-color:#0FCCB7;stop-opacity:0.0483"/>
				<stop  offset="0.6949" style="stop-color:#37D4AF;stop-opacity:0.1415"/>
				<stop  offset="0.8045" style="stop-color:#77E0A3;stop-opacity:0.2703"/>
				<stop  offset="0.9386" style="stop-color:#CFF192;stop-opacity:0.4279"/>
				<stop  offset="1" style="stop-color:#F9F98A;stop-opacity:0.5"/>
			</radialGradient>
			<circle style="fill:url(#SVGID_00000052091399665091750570000005548183419182115225_);" cx="251.17" cy="126.592" r="53.842"/>
			<g>
				<path style="fill:#FFFFFF;" d="M229.732,111.923c0-9.054,3.419-17.307,9.032-23.547c-13.053,5.667-22.186,18.667-22.186,33.804
					c0,20.347,16.495,36.842,36.842,36.842c13.601,0,25.473-7.376,31.855-18.341c-5.743,4.066-12.75,6.463-20.323,6.463
					C245.501,147.144,229.732,131.375,229.732,111.923z"/>
				<polygon style="fill:#FFFFFF;" points="263.866,94.097 269.849,106.22 283.227,108.163 273.546,117.6 275.832,130.924 
					263.866,124.633 251.901,130.924 254.186,117.6 244.505,108.163 257.883,106.22 				"/>
			</g>
			<g>
				<path style="fill:#FFFFFF;" d="M208.201,68.419c0,0.92-0.746,1.666-1.666,1.666s-1.666-0.746-1.666-1.666
					c0-0.92,0.746-1.666,1.666-1.666S208.201,67.499,208.201,68.419z"/>
				<path style="fill:#FFFFFF;" d="M283.488,51.596c0,0.828-0.671,1.499-1.499,1.499c-0.828,0-1.499-0.671-1.499-1.499
					c0-0.828,0.671-1.499,1.499-1.499C282.817,50.097,283.488,50.768,283.488,51.596z"/>
				<path style="fill:#FFFFFF;" d="M272.495,77.747c0,0.552-0.448,0.999-0.999,0.999c-0.552,0-0.999-0.447-0.999-0.999
					c0-0.552,0.447-0.999,0.999-0.999C272.047,76.748,272.495,77.195,272.495,77.747z"/>
				<circle style="fill:#FFFFFF;" cx="336.122" cy="141.375" r="1.332"/>
				<path style="fill:#FFFFFF;" d="M320.132,93.571c0,0.46-0.373,0.833-0.833,0.833c-0.46,0-0.833-0.373-0.833-0.833
					c0-0.46,0.373-0.833,0.833-0.833C319.759,92.738,320.132,93.111,320.132,93.571z"/>
				<circle style="fill:#FFFFFF;" cx="131.581" cy="107.729" r="0.999"/>
				<path style="fill:#FFFFFF;" d="M186.88,138.876c0,0.828-0.671,1.499-1.499,1.499c-0.828,0-1.499-0.671-1.499-1.499
					c0-0.828,0.671-1.499,1.499-1.499C186.209,137.377,186.88,138.048,186.88,138.876z"/>
				<circle style="fill:#FFFFFF;" cx="183.049" cy="99.9" r="1.832"/>
				<path style="fill:#FFFFFF;" d="M311.477,163.695c0,0.736-0.597,1.333-1.333,1.333c-0.736,0-1.332-0.597-1.332-1.333
					c0-0.736,0.597-1.333,1.332-1.333C310.88,162.362,311.477,162.959,311.477,163.695z"/>
				<path style="fill:#FFFFFF;" d="M221.193,171.523c0,0.644-0.522,1.166-1.166,1.166c-0.644,0-1.166-0.522-1.166-1.166
					s0.522-1.166,1.166-1.166C220.671,170.357,221.193,170.879,221.193,171.523z"/>
				<circle style="fill:#FFFFFF;" cx="360.691" cy="101.816" r="1.915"/>
				<path style="fill:#FFFFFF;" d="M145.572,141.541c0,0.644-0.522,1.166-1.166,1.166s-1.166-0.522-1.166-1.166
					c0-0.644,0.522-1.166,1.166-1.166S145.572,140.897,145.572,141.541z"/>
				<path style="fill:#FFFFFF;" d="M207.534,106.396c0,0.736-0.597,1.332-1.333,1.332c-0.736,0-1.333-0.597-1.333-1.332
					c0-0.736,0.597-1.333,1.333-1.333C206.938,105.064,207.534,105.66,207.534,106.396z"/>
				<path style="fill:#FFFFFF;" d="M220.077,49.847c0,0.966-0.783,1.749-1.749,1.749c-0.966,0-1.749-0.783-1.749-1.749
					s0.783-1.749,1.749-1.749C219.294,48.098,220.077,48.881,220.077,49.847z"/>
				<path style="fill:#FFFFFF;" d="M338.121,177.686c0,0.92-0.746,1.666-1.666,1.666c-0.92,0-1.666-0.746-1.666-1.666
					c0-0.92,0.746-1.666,1.666-1.666C337.376,176.02,338.121,176.766,338.121,177.686z"/>
				<path style="fill:#FFFFFF;" d="M302.163,124.542c0,0.465-0.377,0.842-0.842,0.842c-0.465,0-0.842-0.377-0.842-0.842
					c0-0.465,0.377-0.842,0.842-0.842C301.785,123.7,302.163,124.077,302.163,124.542z"/>
				<circle style="fill:#FFFFFF;" cx="209.367" cy="192.51" r="1.832"/>
				<circle style="fill:#FFFFFF;" cx="169.391" cy="166.859" r="1.832"/>
			</g>
		</g>
		<g>
			<g>
				<path style="fill:#ECC1BA;" d="M258.67,208.834c0,0-12.826,12.826-13.992,23.985c-1.166,11.16,2.832,21.32,5.83,22.486
					c2.998,1.166,5.83,5.164,3.664,9.827c-2.165,4.664-5.33,11.993-5.33,11.993l-2.165,0.666c0,0,0.541-2.082-0.208-6.496
					c-0.75-4.414-3.081-14.949-3.748-14.908c-0.666,0.042-2.54,0.292-3.04,4.83c-0.5,4.539-0.416,7.953-0.416,7.953
					s-3.664-6.163-5.33-10.535c-1.666-4.372-3.581-10.577-4.872-11.618c-1.291-1.041-3.04-0.874-3.081,0.75
					c0,0-1.166-5.247-4.331-4.206c-3.165,1.041-1.416,3.998-1.416,3.998s-2.082-0.583-2.748,0.666
					c-0.666,1.249-0.291,3.29-0.291,3.29s-2.332-0.375-2.165,3.498c0.167,3.873,1.874,13.242,3.373,22.07
					c1.499,8.828,4.872,13.034,9.827,13.45l-36.353,40.933c0,0-4.372-11.243-5.08-21.529c-0.708-10.285-1.749-16.282-1.166-19.946
					c0.583-3.664,1.541-8.12-3.248-12.867c-4.789-4.747-7.121-6.975-7.121-6.975s-0.25-5.226-0.958-8.641
					c-0.708-3.415-1.332-5.205-2.832-5.622c0,0,0.375-4.247-1.624-4.331c0,0,0.458-5.122-2.249-5.288c0,0-0.125-3.165-2.124-3.29
					c-1.999-0.125-1.458,2.79-1.458,2.79s-1.874-0.458-2.207,4.372c-0.333,4.83-1.083,18.572-0.833,20.238
					c0.25,1.666,1.458,2.374,4.331,6.371c2.873,3.997,6.788,6.454,6.621,12.367c-0.167,5.913-0.5,27.15-0.625,33.979
					c-0.125,6.829-1.541,41.267,10.827,43.016c12.367,1.749,45.472-28.233,45.472-28.233l8.578,63.461
					c0,0-71.79,16.865-80.284,28.358c-8.495,11.493-11.743,19.363-6.496,24.735c5.247,5.372,40.35,13.992,79.701,12.867
					c39.351-1.124,79.576,1.749,79.701-5.497c0.125-7.246-1.749-88.571-1.749-88.571L289.568,272.17c0,0-4.497-11.118-4.497-14.741
					c0-3.623,7.745-0.625,10.868-13.492c3.123-12.867,3.623-22.861-4.872-30.232C282.572,206.335,268.976,195.218,258.67,208.834z"
					/>
				<g>
					<path style="fill:#DE9595;" d="M252.487,268.839l22.59-6.038l-10.16-18.077c-2.915,12.738-12.667,11.608-12.667,11.608
						C265.399,257.441,252.487,268.839,252.487,268.839z"/>
					<path style="fill:#DE9595;" d="M224.732,272.545l3.107,4.497l0.89,6.871c0,0,1.914-11.801,4.568-16.449
						c-1.526,2.026-4.053,5.703-4.568,8.454L224.732,272.545z"/>
					<path style="fill:#DE9595;" d="M233.298,267.463c0.692-0.918,1.178-1.498,1.178-1.498
						C234.071,266.283,233.677,266.8,233.298,267.463z"/>
					<path style="fill:#DE9595;" d="M225.273,262.967c0.693,0.627-3.655-11.647-5.493-16.78c0.098,0.762,0.455,1.372,0.455,1.372
						s-0.469-0.126-1.029-0.132C220.776,251.822,224.583,262.342,225.273,262.967z"/>
					<path style="fill:#DE9595;" d="M226.777,246.492c-0.455,0.188-0.778,0.598-0.796,1.276c0,0-0.217-0.969-0.714-1.991
						c0.288,2.302,4.503,17.649,5.544,18.898C231.846,265.915,226.845,246.751,226.777,246.492z"/>
					<path style="fill:#DE9595;" d="M217.195,251.516c0,0-0.342-0.053-0.755,0.096c1.4,4.275,4.062,12.225,4.669,12.771
						c0.673,0.606-2.651-10.726-3.952-15.096C216.988,250.382,217.195,251.516,217.195,251.516z"/>
					<path style="fill:#DE9595;" d="M168.1,264.508c-0.208-4.456-1.293-8.139,4.08-8.275c0,0-0.311-0.469-2.112-0.511l-0.219-4.164
						l-0.5,4.372c0,0-1.957,0.458-1.915,4.122c0.042,3.664,0.25,13.825,1.166,15.74c0.916,1.916,3.664,6.121,3.664,6.121
						c0-0.167-1.582-4.081-2.79-5.455C168.267,275.085,168.308,268.964,168.1,264.508z"/>
					<path style="fill:#DE9595;" d="M168.048,246.35l-0.448-0.081l-0.253-1.411c0.036,0.116,0.313,13.195,0.313,13.195
						L168.048,246.35z"/>
					<path style="fill:#DE9595;" d="M164.019,245.77l-0.31,0.007c0,0,1.893,18.856,2.975,22.687l-2.474-24.805
						C164.21,243.658,163.853,245.228,164.019,245.77z"/>
				</g>
			</g>
			<g>
				<path style="fill:#230760;" d="M162.82,418.481c0,0-15.416,7.221-18.414,13.467c-2.998,6.246-8.745,23.486-1.999,29.232
					c6.746,5.746,73.449,11.217,103.187,10.494c29.738-0.723,85.448-1.549,88.196-4.272c2.748-2.723,4.497-4.722,4.247-6.721
					c-0.25-1.999-12.242-16.157-16.407-21.487L162.82,418.481z"/>
				<g>
					<path d="M163.395,424.077l17.062,15.272c-6.371-1.538-14.288-1.411-23.434,2.842c0,0,13.143-3.589,28.469,1.469l26.327,20.798
						l2.419-8.401l-51.419-37.577L163.395,424.077z"/>
					<polygon points="295.975,465.427 276.073,470.785 297.188,467.801 321.631,439.193 					"/>
				</g>
			</g>
			<g>
				<path style="fill:#FFFFFF;" d="M249.509,269.963l33.979-12.826l7.162,11.326l-0.999,1.499l4.997,1.832
					c0,0,7.008,30.981,14.164,66.293c7.156,35.312,5.657,83.449,5.657,83.449s2.332,9.494,2.998,12.326
					c0.666,2.832,4.164,5.33,4.164,5.33l-25.657,27.082c0,0-16.658,3.847-31.111,6.976c-11.469,2.484-23.403,1.823-34.5-1.99
					c-5.826-2.002-11.497-3.778-13.502-3.86c-4.678-0.192-16.537-13.778-28.483-23.544c-9.842-8.046-24.152-21.154-24.152-21.154
					l-1.999-5.996c0,0,66.459-17.823,67.958-20.488c1.499-2.665-6.163-50.802-6.163-50.802s-31.481,24.319-37.644,26.651
					c-6.163,2.332-11.326-4.83-13.825-7.995c-2.499-3.165-6.33-26.484-6.33-32.314s4.164-14.658,4.164-14.658l1.307-16.654
					c0,0,7.197-6.286,14.272-0.313l2.91,13.636l2.998,7.662l0.167,7.329c0,0,37.144-43.474,40.142-45.972
					c2.998-2.499,16.656-7.995,16.656-7.995L249.509,269.963z"/>
				<g>
					<polygon style="fill:#D0C6E5;" points="249.509,269.963 248.842,274.793 273.835,269.463 289.651,269.963 290.65,268.464 
						283.488,257.138 					"/>
					<path style="fill:#D0C6E5;" d="M270.329,388.641c0,0-14.658-6.246-24.402-17.156c-9.744-10.91-17.073-27.067-17.073-27.067
						l13.075-16.157l-17.906,17.156l4.867,33.518l-2.035-24.815c0,0,0.417,3.04,11.743,26.192
						c11.326,23.153,27.65,31.397,27.65,31.397c-15.74-9.744-28.982-46.721-28.982-46.721
						C252.174,385.309,270.329,388.641,270.329,388.641z"/>
					<path style="fill:#D0C6E5;" d="M230.491,395.647l-4.575,2.562c0.744,26.597,20.389,41.975,20.389,41.975
						C234.966,429.87,230.491,395.647,230.491,395.647z"/>
					<path style="fill:#D0C6E5;" d="M164.227,422.703l21.404,18.874l18.738,0.614c-7.995-2.499-20.321-5.164-20.321-5.164
						L164.227,422.703z"/>
					<path style="fill:#D0C6E5;" d="M191.919,323.263c-5.538,2.414-11.618,19.572-11.618,19.572l11.743-14.075L191.919,323.263z"/>
					<polygon style="fill:#D0C6E5;" points="318.192,435.556 295.975,466.275 321.631,439.193 					"/>
				</g>
			</g>
			<g>
				<path style="fill:#492012;" d="M259.919,207.335c0,0-11.326,4.664-13.908,9.911c0,0,5.08-2.332,6.954-2.249
					c0,0-5.622,9.744-4.789,16.323c0,0,2.498-4.747,4.789-6.246c0,0-4.197,12.408-1.037,16.948l8.99,3.343
					c0,0-2.082,10.358,2.165,14.938l0.75-2.332c0,0,4.247,11.41,17.822,9.494c13.575-1.915,14.741-8.911,14.741-8.911l-3.914,1.666
					c0,0,5.58-5.413,6.496-9.078l-0.833,4.414c0,0,4.18-4.59,3.422-10.832"/>
				<path style="fill:#DE9595;" d="M266.219,242.62c-4.518,3.815-10.553,4.097-13.48,0.631c-2.927-3.467-1.638-9.369,2.88-13.184
					c4.518-3.815,10.553-4.098,13.481-0.631C272.026,232.902,270.737,238.805,266.219,242.62z"/>
			</g>
			<g>
				<path style="fill:#FFFFFF;" d="M259.586,207.698c0,0,8.245-17.228,12.118-18.852c3.873-1.624,22.486,2.255,32.355,13.557
					c9.869,11.302,10.868,24.544,10.868,24.544l-13.359,17.776c0,0-14.324-0.661-30.239-15.402
					C256.904,215.961,259.586,207.698,259.586,207.698z"/>
				<path style="fill:#E1DCEF;" d="M271.329,229.321c15.915,14.741,30.239,15.402,30.239,15.402l7.91-10.525
					c-3.693,4.913-4.42,3.117-10.916-1.13c-6.496-4.247,2.498,5.497-11.404,0.999c-13.903-4.497-27.572-26.37-27.572-26.37
					S256.904,215.961,271.329,229.321z"/>
			</g>
		</g>
	</g>
</g>
</svg>
